<?xml version="1.0" encoding="UTF-8"?>
<svg width="20px" height="20px" viewBox="0 0 20 20" version="1.1" xmlns="http://www.w3.org/2000/svg" xmlns:xlink="http://www.w3.org/1999/xlink">
    <title>DF5986AE-6F7F-4F1D-88A4-07BDA10CBE74</title>
    <g id="Design-System" stroke="none" stroke-width="1" fill="none" fill-rule="evenodd">
        <g id="DS_Cross_01.07-Icone" transform="translate(-730.000000, -614.000000)" fill="#ffffff" fill-rule="nonzero">
            <g id="icone/natura/montagna-copy-39" transform="translate(730.000000, 614.000000)">
                <path d="M9.53147871,1.41434839 L4.736,5.25 L2,5.25 C1.58578644,5.25 1.25,5.58578644 1.25,6 L1.25,14 L1.25684662,14.1017706 C1.30650904,14.4678461 1.62030423,14.75 2,14.75 L4.737,14.75 L9.53147871,18.5856516 C10.0225512,18.9785096 10.75,18.6288797 10.75,18 L10.75,2 C10.75,1.37112034 10.0225512,1.02149039 9.53147871,1.41434839 Z M9.25,3.559 L9.25,16.44 L5.46852129,13.4143484 L5.38507806,13.3564032 C5.26924052,13.2870948 5.1362429,13.25 5,13.25 L2.75,13.25 L2.75,6.75 L5,6.75 C5.17030362,6.75 5.3355365,6.69203944 5.46852129,6.58565161 L9.25,3.559 Z M12,3.25 C15.7279221,3.25 18.75,6.27207794 18.75,10 C18.75,13.7279221 15.7279221,16.75 12,16.75 C11.5857864,16.75 11.25,16.4142136 11.25,16 C11.25,15.5857864 11.5857864,15.25 12,15.25 C14.8994949,15.25 17.25,12.8994949 17.25,10 C17.25,7.10050506 14.8994949,4.75 12,4.75 C11.5857864,4.75 11.25,4.41421356 11.25,4 C11.25,3.58578644 11.5857864,3.25 12,3.25 Z M12,6.25 C14.0710678,6.25 15.75,7.92893219 15.75,10 C15.75,12.0710678 14.0710678,13.75 12,13.75 C11.5857864,13.75 11.25,13.4142136 11.25,13 C11.25,12.6203042 11.5321539,12.306509 11.8982294,12.2568466 L12,12.25 C13.2426407,12.25 14.25,11.2426407 14.25,10 C14.25,8.75735931 13.2426407,7.75 12,7.75 C11.5857864,7.75 11.25,7.41421356 11.25,7 C11.25,6.58578644 11.5857864,6.25 12,6.25 Z" id="Combined-Shape"></path>
            </g>
        </g>
    </g>
</svg>
