<?xml version="1.0" encoding="UTF-8"?>
<svg width="20px" height="20px" viewBox="0 0 20 20" version="1.1" xmlns="http://www.w3.org/2000/svg" xmlns:xlink="http://www.w3.org/1999/xlink">
    <title>54F88578-76C8-46D5-BC2B-9992163700F8</title>
    <g id="Design-System" stroke="none" stroke-width="1" fill="none" fill-rule="evenodd">
        <g id="DS_Cross_01.07-Icone" transform="translate(-760.000000, -614.000000)" fill="#ffffff" fill-rule="nonzero">
            <g id="icone/natura/montagna-copy-41" transform="translate(760.000000, 614.000000)">
                <path d="M3,5.25 C3.41421356,5.25 3.75,5.58578644 3.75,6 C3.75,6.37969577 3.46784612,6.69349096 3.10177056,6.74315338 L3,6.75 L2.75,6.75 L2.75,13.25 L5,13.25 C5.1362429,13.25 5.26924052,13.2870948 5.38507806,13.3564032 L5.46852129,13.4143484 L9.25,16.44 L9.25,13 C9.25,12.6203042 9.53215388,12.306509 9.89822944,12.2568466 L10,12.25 C10.3796958,12.25 10.693491,12.5321539 10.7431534,12.8982294 L10.75,13 L10.75,18 C10.75,18.5939419 10.1011337,18.9388 9.61534754,18.6443325 L9.53147871,18.5856516 L4.737,14.75 L2,14.75 C1.62030423,14.75 1.30650904,14.4678461 1.25684662,14.1017706 L1.25,14 L1.25,6 C1.25,5.62030423 1.53215388,5.30650904 1.89822944,5.25684662 L2,5.25 L3,5.25 Z M10.7434296,1.8978518 L10.75,2 L10.749,9.68859202 L13.0506325,11.9905566 C13.7752272,11.6078844 14.25,10.849159 14.25,10 C14.25,8.75735931 13.2426407,7.75 12,7.75 C11.5857864,7.75 11.25,7.41421356 11.25,7 C11.25,6.58578644 11.5857864,6.25 12,6.25 C14.0710678,6.25 15.75,7.92893219 15.75,10 C15.75,11.2569804 15.1258964,12.3948355 14.1397843,13.0804521 L15.2136204,14.1521133 C16.4825575,13.1695548 17.25,11.6509261 17.25,10 C17.25,7.10050506 14.8994949,4.75 12,4.75 C11.5857864,4.75 11.25,4.41421356 11.25,4 C11.25,3.58578644 11.5857864,3.25 12,3.25 C15.7279221,3.25 18.75,6.27207794 18.75,10 C18.75,12.05714 17.8218944,13.9560924 16.2795697,15.220522 L18.5303301,17.4696699 C18.8232233,17.7625631 18.8232233,18.2374369 18.5303301,18.5303301 C18.2640635,18.7965966 17.8473998,18.8208027 17.5537883,18.6029482 L17.4696699,18.5303301 L9.59271944,10.6555766 C9.50374724,10.5979293 9.42776136,10.5219434 9.37011406,10.4329712 L1.46966991,2.53033009 C1.1767767,2.23743687 1.1767767,1.76256313 1.46966991,1.46966991 C1.73593648,1.20340335 2.15260016,1.1791973 2.44621165,1.39705176 L2.53033009,1.46966991 L5.611,4.55059202 L9.53147871,1.41434839 C9.99526942,1.04331583 10.6699019,1.3345642 10.7434296,1.8978518 Z M9.249,3.56 L6.678,5.61759202 L9.249,8.18859202 L9.249,3.56 Z" id="Combined-Shape"></path>
            </g>
        </g>
    </g>
</svg>
