<?xml version="1.0" encoding="UTF-8" standalone="no"?> <svg id="artwork" xmlns="http://www.w3.org/2000/svg" viewBox="0 0 512 512"><title>zebra</title><g id="Zebra"><path d="M85.19,108.15a6.57,6.57,0,1,0,8.2,4.35A6.57,6.57,0,0,0,85.19,108.15Z"/><path d="M436.29,254.31a63.1,63.1,0,0,0-63-63.09H326.42a6.41,6.41,0,0,0-6.4,6.4v.21a6.4,6.4,0,0,0,6.4,6.39h22.39A55,55,0,0,1,391,224c-13.55,35.71-40.09,54.51-51.86,61.39-.07-1-.09-1.54-.09-1.58h0a6.5,6.5,0,0,0-8.55-6.07h0A201.33,201.33,0,0,1,293.81,286a111.16,111.16,0,0,0,39.75-58,6.41,6.41,0,0,0-4.66-8l-.2-.05a6.37,6.37,0,0,0-7.59,4.36,98,98,0,0,1-32.71,49.41,92.08,92.08,0,0,1-24,14.27A224.25,224.25,0,0,1,240,286.5a42.36,42.36,0,0,0-1.3-5,89,89,0,0,0,28.14-23.26l.27-.36a81.46,81.46,0,0,0,12-21.12,83.73,83.73,0,0,0,2.93-9,6.38,6.38,0,0,0-5.07-7.86l-.2,0a6.43,6.43,0,0,0-7.34,4.73,70.88,70.88,0,0,1-2.44,7.47,68.78,68.78,0,0,1-10.14,17.8l-.15.2-.13.18a74.39,74.39,0,0,1-28.34,21.81,8,8,0,0,0-.85.35l-5.34,2.7,2.19,5.56.29.64a28.79,28.79,0,0,1,3.27,12.31v.2c0,.25,0,.5,0,.75L227.7,297c0,.42-.08.83-.12,1.19a27.76,27.76,0,0,1-.81,4.14,28.48,28.48,0,0,1-1.1,3.23,68.74,68.74,0,0,0,.25,51.89l2.6,6.42a9.33,9.33,0,0,1,.66,3.42V471.36h-12V368.29l-42.49-83.13c-1-1.87-1.83-3.79-2.65-5.73,13.48-3.84,44.26-16.16,61.38-51.23a6.37,6.37,0,0,0-3.35-8.66l-.19-.08a6.39,6.39,0,0,0-8.18,3.12c-15.24,31.09-42.8,41.5-53.73,44.51a83.5,83.5,0,0,1-2.22-14,6.51,6.51,0,0,0-6.48-6.06h0a6.5,6.5,0,0,0-6.49,7,97.18,97.18,0,0,0,9,34.38l-.48-.31-.63-.23a58.22,58.22,0,0,1-30.11-26.3A56,56,0,0,1,125.13,247c7.35-2,45.7-13.16,63.37-33.77a6.38,6.38,0,0,0-1.63-9.61l-.16-.1a6.35,6.35,0,0,0-8.09,1.28c-12.46,14.59-41,25.12-54.82,29.08A58.32,58.32,0,0,1,125.62,220a129.17,129.17,0,0,0,4.22-26.08c8.68-1.87,25.34-7.06,35.54-20.46a6.4,6.4,0,0,0-2.24-9.58l-.19-.09a6.43,6.43,0,0,0-8,1.89c-6.73,8.75-17.82,13-25,14.85-.12-2.37-.29-4.74-.54-7.1a126.59,126.59,0,0,0-4.11-21.25,53.2,53.2,0,0,0,15.94-20.53,6.4,6.4,0,0,0-3.78-8.72l-.19-.06a6.39,6.39,0,0,0-7.86,3.38c-3,6.47-7.81,13.58-15.64,18a35.23,35.23,0,0,1-6.66,2.84,77.65,77.65,0,0,1-16.84,3.34l-10-13.72a21.87,21.87,0,0,0-20.57-8.79,8.86,8.86,0,0,1-8.54-3.83l-1.33-2L78.35,97.5A73.78,73.78,0,0,1,99.84,84.63l1.28-.46a31,31,0,0,1,3.36-.93c0,1.27.18,3.18.4,5.16a6.29,6.29,0,0,0,7.54,5.48h0a6.28,6.28,0,0,0,5-6.37,86.91,86.91,0,0,1,2-21.15c2.28-9.71,9-16.51,14-20.38,2.69,7.4,6,19.68,3.41,30.59a88.77,88.77,0,0,1-4.52,12.91,6.55,6.55,0,0,0,2.93,8.35h0a6.55,6.55,0,0,0,9-3c.63-1.37,1.19-2.62,1.5-3.4a37.59,37.59,0,0,1,2.46,3,39,39,0,0,1,5.4,10.14L169.51,149l9.42,24.9a46.92,46.92,0,0,0,43.89,30.32H289a6.39,6.39,0,0,0,6.4-6.4v-.2a6.4,6.4,0,0,0-6.4-6.4h-7.8l-2.27-1.82C263.51,177,244.29,171,224.54,170.56a13.83,13.83,0,0,1-12.68-9.05l-23.46-64a83.32,83.32,0,0,0-39.65-45.31,90.16,90.16,0,0,0-6.6-18.89l-2.9-5.72-5.75,2.82A57,57,0,0,0,113.63,48l-9,2.77A59.77,59.77,0,0,0,63.74,92.94l-45.6,39.28a19.9,19.9,0,0,0-6.56,9.63A18,18,0,0,0,12,153.66,25.84,25.84,0,0,0,23.69,167a29,29,0,0,0,14.11,3.61,31,31,0,0,0,11.25-2.13l14.57-5.64c18,2.16,34,1,47.48-3.4.85-.27,1.65-.55,2.42-.84a113.43,113.43,0,0,1,2.91,16.18,114.49,114.49,0,0,1-3.38,41.87c-2.11,8.06-5.75,29.14,6,51L92.78,343.2,148,462.81l-2,1.31a6.4,6.4,0,0,0-1.78,8.87l.11.17a6.4,6.4,0,0,0,8.87,1.78L178,458.49,140.68,349.37l15.43-20.22a6.39,6.39,0,0,0-1.2-9l-.16-.13a6.41,6.41,0,0,0-9,1.2L126.13,347l36.28,106.22-3.45,2.3-52.18-113,21.49-61.7a72.63,72.63,0,0,0,27.15,19l3.39,2.15c7.13,4.54,18.08,18.5,22.08,24l23.25,45.49v99.94h-4a6.4,6.4,0,0,0-6.4,6.4V478a6.39,6.39,0,0,0,6.4,6.39h42V367.24a22.14,22.14,0,0,0-1.61-8.27l-2.6-6.43a55.83,55.83,0,0,1-.25-42.12,42.75,42.75,0,0,0,2.78-10.79,233,233,0,0,0,25.06,1.3,226.55,226.55,0,0,0,61.25-8.48,95,95,0,0,0,2.28,11.08,114.44,114.44,0,0,1-37.45,8.92c-23,1.48-30.48-.08-38.2-1.55l-.68-.12a6.5,6.5,0,0,0-7.5,5.21h0a6.51,6.51,0,0,0,5.28,7.6l.46.07c6.53,1.25,11.07,2.25,26.95,2.25q3.35,0,7.05-.12a57.38,57.38,0,0,0,23.3,20.91C320,352.41,327,360.8,327,369.16a58,58,0,0,1-4.91,23.44l-.09.21-28,78.56h-2a6.4,6.4,0,0,0-6.4,6.4v.2a6.41,6.41,0,0,0,6.4,6.4h35.5L365,383.84l-.19-35.74c10.12,5.63,16.09,13.36,16.09,21.06V471.37h-2.48a6.39,6.39,0,0,0-6.4,6.4v.2a6.4,6.4,0,0,0,6.4,6.4H415V401.92l6.35-53.38c1.48-10.29-2.73-14.82-5.37-16.61-6.81-4.6-10.21-12.51-10.4-24.17l5.2-15.87A47.77,47.77,0,0,0,451.61,315h17.77a31.85,31.85,0,0,0,31.85-31.85v-6.5H458.92A22.51,22.51,0,0,1,436.29,254.31ZM242.06,185.63a75.22,75.22,0,0,1,15.51,5.59H242.06Zm-27.34-4.06a26.63,26.63,0,0,0,10.1,2c1.41,0,2.83.05,4.24.13v7.52h-6.24a33.92,33.92,0,0,1-11.64-2.08ZM199.65,166a26.56,26.56,0,0,0,4.41,7.68L200,182.38a34,34,0,0,1-8.9-13.09l-.72-1.91L198.2,162Zm-11-30,4.94,13.47-8,5.42-3.9-10.31-1.57-4.39Zm-4.5-12.28-8.41,4.15L171,114.51l8.31-4.1ZM168.32,86.62a71.16,71.16,0,0,1,6.33,11.57l-8.11,4-.74-2.07A52.72,52.72,0,0,0,162,91.84Zm-17.64-18a70.67,70.67,0,0,1,9.39,7.94l-5.87,4.83a51.49,51.49,0,0,0-4.32-4A50.74,50.74,0,0,0,150.68,68.64Zm-44-4.79q-.69,3-1.16,6a43.9,43.9,0,0,0-8.58,2c-.58.2-1.16.41-1.76.64-2.44.94-4.82,2-7.15,3.15A49.1,49.1,0,0,1,106.66,63.85Zm-43,85.9L62,149.53l-17.64,6.83a18,18,0,0,1-7.54,1.19l3.29-2.62a6.51,6.51,0,0,0,1-9.14h0a6.51,6.51,0,0,0-9.14-1l-7.17,5.73a12.25,12.25,0,0,1-.74-1.55,5,5,0,0,1-.07-3.3,6.91,6.91,0,0,1,2.35-3.36l13.48-11.61.47.7a21.78,21.78,0,0,0,21,9.42,8.94,8.94,0,0,1,8.37,3.58l4.62,6.33C70.85,150.53,67.28,150.22,63.64,149.75ZM318.5,471.37H307.83l26.3-73.76A71,71,0,0,0,340,369.16c0-13.65-9.5-26.1-26.06-34.15a43.17,43.17,0,0,1-13.57-10.36,126.27,126.27,0,0,0,33-8.83,63.4,63.4,0,0,0,18.33,24.36l.22,41.35Zm89.88-128.86a9.46,9.46,0,0,1,.05,4.23L402,401.15v70.22h-8.1V369.16c0-13.65-9.5-26.1-26.07-34.15-16.22-7.88-23.3-24-26.38-36,9.66-4.94,40.17-23,58-61.39a54.89,54.89,0,0,1,3.53,32l-2,10.55-8.25,25.18a122.51,122.51,0,0,1-9,11.4,6.4,6.4,0,0,0,.3,8.8l.15.14a6.41,6.41,0,0,0,9.29-.32c.5-.56,1-1.12,1.48-1.69A34.61,34.61,0,0,0,408.38,342.51Zm61-40.55H451.61a34.79,34.79,0,0,1-34.76-34.72l0-4.23h-.14a67.82,67.82,0,0,0-22.14-54,50.11,50.11,0,0,1,28.69,45.24,35.39,35.39,0,0,0,35.35,35.36h28.44A18.9,18.9,0,0,1,469.38,302Z"/></g></svg>