<?xml version="1.0" encoding="UTF-8"?>
<!DOCTYPE svg PUBLIC "-//W3C//DTD SVG 1.1//EN" "http://www.w3.org/Graphics/SVG/1.1/DTD/svg11.dtd">
<!-- Creator: CorelDRAW -->
<svg xmlns="http://www.w3.org/2000/svg" xml:space="preserve" width="1.70666in" height="1.70666in" version="1.1" style="shape-rendering:geometricPrecision; text-rendering:geometricPrecision; image-rendering:optimizeQuality; fill-rule:evenodd; clip-rule:evenodd"
viewBox="0 0 1706.66 1706.66"
 xmlns:xlink="http://www.w3.org/1999/xlink"
 xmlns:xodm="http://www.corel.com/coreldraw/odm/2003">
 <defs>
  <style type="text/css">
   <![CDATA[
    .fil0 {fill:black}
   ]]>
  </style>
 </defs>
 <g id="Layer_x0020_1">
  <metadata id="CorelCorpID_0Corel-Layer"/>
  <path class="fil0" d="M853.33 1706.53c-142.08,0 -279.46,-80.56 -408.9,-239.59 -0.63,24.98 3.47,47.67 -13.35,54.57 -7.36,3.03 -15.81,1.36 -21.48,-4.17 -257.99,-250.36 -226.37,-506.65 -217.87,-553.74 -85.82,-176.3 -34.98,-367.31 -26.87,-394.91 0.75,-18.87 14.37,-46.74 28.4,-70.72 -16.59,2.4 -52.43,13.68 -53.62,-14.5 -6.62,-157.09 70.24,-256.6 206.29,-279.92l-54.9 -47.86c-15.54,-13.54 -2.67,-39.06 17.48,-34.59 82.69,18.32 331.86,-122.83 350.02,-120.85 126.24,13.82 257.33,13.81 389.66,0 17.96,-1.94 267.2,139.12 349.94,120.86 20.17,-4.45 33.01,21.04 17.48,34.59l-54.88 47.84c136.06,23.35 212.91,122.81 206.29,279.93 -1.19,28.19 -37.01,16.89 -53.63,14.5 14.02,23.98 27.63,51.85 28.4,70.72 8.1,27.62 58.93,218.63 -26.89,394.93 8.52,47.09 40.13,303.37 -217.86,553.74 -12.5,12.11 -33.48,3.5 -33.93,-13.85l-0.92 -36.55c-129.43,159.02 -266.8,239.56 -408.89,239.56zm-427.48 -316.2c6.22,0 12.24,2.92 16.08,8.11 264.78,357.7 558.05,357.8 822.8,0 11.24,-15.19 35.59,-7.62 36.08,11.38l1.14 45.26c224.9,-244.01 173.13,-487.26 172.56,-489.8 -1.03,-4.54 -0.46,-9.35 1.64,-13.5 87.75,-173.32 27.19,-372.25 26.56,-374.24 -0.79,-2.51 -1.07,-5.18 -0.83,-7.8 0.36,-10.44 -20.76,-50.91 -45.23,-86.49 -9.85,-14.34 2.12,-33.59 19.35,-31.13l51.44 7.43c-1.86,-150.41 -102.04,-222.54 -214.54,-220.22 -19.27,0.4 -27.81,-22.96 -13.93,-35.07l51.97 -45.3c-103.11,-17.74 -271.61,-101.65 -304.5,-118.39 -131.11,13.29 -260.88,13.3 -386.28,0.02 -33,16.77 -201.39,100.63 -304.44,118.35l51.96 45.3c11.78,10.27 9.57,35.17 -16.52,35.04 -111.83,-0.57 -210.11,70.65 -211.93,220.25 31.76,-4.59 60.98,-14.76 71.28,1.81 4.19,6.75 4,15.33 -0.52,21.89 -24.47,35.61 -45.59,76.06 -45.22,86.56 0.08,2.26 -0.17,5.56 -0.85,7.72 -0.62,1.98 -61.2,200.92 26.56,374.24 2.11,4.18 2.69,8.97 1.64,13.54 -0.57,2.51 -52.34,245.74 172.57,489.76 0.76,-30.03 -5.09,-64.72 21.13,-64.72z"/>
  <path class="fil0" d="M869.03 998.67c-104.19,0 -133.85,-137.04 -88.33,-137.04l176.64 0c45.51,0 15.88,137.04 -88.31,137.04zm-67.4 -97.03c12.6,75.39 122.2,75.39 134.8,0l-134.8 0z"/>
  <path class="fil0" d="M869.02 1044.27c-26.67,0 -20,-35.73 -20,-65.59 0,-26.33 40,-26.32 40,0 0,29.87 6.67,65.59 -20,65.59z"/>
  <path class="fil0" d="M961.31 1102.48c-11.56,0 -78.06,-45.61 -92.29,-54.59l-81.66 51.5c-22.28,14.06 -43.61,-19.79 -21.33,-33.82l92.32 -58.21c6.51,-4.13 14.8,-4.13 21.35,0l92.29 58.21c16.92,10.68 9.22,36.91 -10.68,36.91z"/>
  <path class="fil0" d="M734.97 1268.98c-10.64,0 -54.55,-2.72 -67.45,-7.54 -7.35,-2.79 -73.3,-31.46 -125,-177.54 -8.79,-24.81 28.92,-38.18 37.7,-13.35 41.69,117.77 91.99,148.49 100.56,153.01 95.87,17.72 151.88,-7.63 166.52,-75.34 4.53,-20.9 34.57,-20.91 39.09,0 14.67,67.73 70.7,93.1 166.56,75.32 12.09,-4.19 61.91,-43.85 100.5,-152.99 8.8,-24.87 46.49,-11.44 37.7,13.35 -42.23,119.17 -103.71,173.93 -128.34,178.48 -114.96,21.98 -169.84,-14.52 -195.96,-56.35 -20.7,33.15 -59.46,62.96 -131.88,62.96z"/>
  <path class="fil0" d="M1172.32 1097.23c-19.71,0 -27.58,-25.83 -10.98,-36.72 57.81,-37.94 74.22,-136.84 75.93,-148.17 3.15,-38.98 1.09,-321.16 4.57,-333.35 59.3,-207.51 -185.87,-294.33 -196.34,-297.93 -148.57,-45.78 -158.98,309.48 -156.46,385.51 0.87,26.4 -39.12,27.55 -39.98,1.32 -0.43,-12.96 -9.25,-318.11 101.89,-405.79 30.26,-23.84 66.02,-30.35 106.33,-19.26 4.07,1.35 290.69,102.25 223.75,344.49 -2.93,20.7 -0.67,304.57 -3.96,329.12 -0.67,5.17 -17.31,127.29 -93.8,177.49 -3.36,2.21 -7.18,3.3 -10.94,3.3z"/>
  <path class="fil0" d="M565.19 1097.23c-3.76,0 -7.57,-1.07 -10.96,-3.28 -76.69,-50.09 -93.87,-174.13 -93.96,-179.83l-3.79 -326.77c-66.94,-242.24 219.67,-343.13 222.59,-344.13 41.46,-11.42 77.24,-4.94 107.49,18.91 111.15,87.69 102.32,392.83 101.9,405.79 -0.86,26.43 -40.82,24.91 -39.98,-1.32 2.45,-76.09 -7.03,-431.77 -157.66,-385.17 -9.28,3.2 -254.44,90.02 -195.14,297.53 3.48,12.19 1.43,294.41 4.57,333.35 1.71,11.31 18.11,110.24 75.92,148.17 16.61,10.91 8.69,36.73 -10.98,36.73z"/>
  <path class="fil0" d="M1172.29 1097.23c-10.5,0 -19.3,-8.18 -19.95,-18.79l-5.54 -91c-4.8,-10.66 -60.94,-50.02 -60.94,-69.22l0 -101.93c-4.7,-11.68 -80.57,-71.91 -80.57,-91.92l0 -132.86c0,-26.32 39.99,-26.32 39.99,0l0 124.82c4.7,11.68 80.58,71.91 80.58,91.92l0 101.69c3.72,8.99 59.28,49.66 60.39,67.52l6.02 98.55c0.7,11.48 -8.46,21.22 -19.97,21.22z"/>
  <path class="fil0" d="M561.39 1097.23c-11.52,0 -20.68,-9.74 -19.98,-21.22 1.58,-26.05 1.61,-101.27 11.82,-111.48l54.57 -54.59c4.64,-11.2 -8.17,-101.22 5.59,-115.56l75 -78.06 0 -124.82c0,-26.33 40,-26.33 40,0l0 132.86c0,20 -75.9,80.27 -80.59,91.93 -4.8,11.91 8.5,101.7 -5.87,116.08l-55.07 55.07 -5.53 91c-0.64,10.6 -9.46,18.78 -19.94,18.78z"/>
  <path class="fil0" d="M1065.36 648.82c-79.07,0 -79.07,-120.15 0,-120.15 79.07,0 79.06,120.15 0,120.15zm0 -80.14c-26.42,0 -26.41,40.16 0,40.16 26.42,0 26.41,-40.16 0,-40.16z"/>
  <path class="fil0" d="M1133.07 583.59c-24.18,0 -56.51,5.75 -56.51,-20 0,-25.75 32.35,-20 56.51,-20 26.33,0 26.31,40 0,40z"/>
  <path class="fil0" d="M668.31 648.82c-79.06,0 -79.08,-120.15 0,-120.15 79.07,0 79.07,120.15 0,120.15zm0 -80.14c-26.43,0 -26.44,40.16 0,40.16 26.43,0 26.43,-40.16 0,-40.16z"/>
  <path class="fil0" d="M637.12 583.59c-24.18,0 -56.51,5.75 -56.51,-20 0,-25.75 32.33,-20 56.51,-20 26.33,0 26.33,40 0,40z"/>
  <path class="fil0" d="M790.69 1594.04c-8.21,0 -15.64,-5.07 -18.64,-12.74l-40.43 -103.67c-100.77,-11.22 -112.44,-120.09 -76.16,-240.69 7.6,-25.26 45.88,-13.67 38.3,11.52 -30.16,100.2 -16.81,146.11 -0.29,166.95 28.99,36.61 60.91,10.49 70.67,35.51l27.27 69.95 35.7 -84.48c7.39,-17.46 33.26,-15.76 37.85,3.04l13.65 55.93c15.53,-23.32 25.3,-47.4 43.89,-43.8 20.21,3.92 21.14,41.06 28.69,77.12 77.14,-60.22 161.81,-180.88 94.61,-275.87 -15.15,-21.41 17.5,-44.52 32.66,-23.11 88.63,125.16 -25.44,282.67 -129.76,349.8 -32.2,20.72 -36.5,-41.81 -39.79,-57.51 -14.81,22.24 -24.19,45.3 -42.4,42.09 -18.45,-3.26 -19.46,-29.24 -26.09,-56.45l-31.35 74.17c-3.12,7.41 -10.39,12.23 -18.41,12.23z"/>
 </g>
</svg>
